<svg xmlns="http://www.w3.org/2000/svg" viewBox="0 0 211.6 255.53"><defs><style>.cls-1{fill:#868686;}</style></defs><g id="Capa_2" data-name="Capa 2"><g id="Valores"><path class="cls-1" d="M208.85,0l1.53,5.28a30.84,30.84,0,0,1,.42,3.44c.4,3,.62,6,.72,9,0,1.31.07,2.64.08,4-.1,1.17,0,2.46,0,3.79l0,.39c-.1,1.18,0,2.3-.2,3.31,0,1.35-.24,2.75-.33,3.93s-.37,2.42-.48,3.6a93.93,93.93,0,0,1-3.75,15.35l-.92,2.45a55.88,55.88,0,0,1-2.57,6l-2.26,4.32a42.06,42.06,0,0,1-4.2,6.61,19.89,19.89,0,0,1-1.35,1.86,52,52,0,0,1-9.67,9.54c-.42.36-1,.78-1.45,1.15A26.36,26.36,0,0,1,180,86.8l-2.92,1.72a20.76,20.76,0,0,1-3,1.58l-.33.13c-1,.39-2.06,1-3.05,1.39l-3.11,1.24a15.25,15.25,0,0,0-2.55,1.21l-.33.13c-.4.2-.82.4-1.22.61q-4.51,1.44-9,3.21a131.74,131.74,0,0,0-67.74,60.31c-1.85,3.4-3.55,6.94-5.12,10.56a131.84,131.84,0,0,0-6.38,86.64l-.56-1.41c-.39-1-1-2.06-1.4-3.05l-.13-.32a21.86,21.86,0,0,0-1.57-3c-.56-.91-1.17-2-1.73-2.91a26.87,26.87,0,0,0-2.87-4.36c-.36-.43-.79-1-1.15-1.44a52.33,52.33,0,0,0-9.53-9.68c-.6-.51-1.35-1-1.87-1.34a42.13,42.13,0,0,0-6.61-4.21l-4.32-2.26a57,57,0,0,0-6-2.56l-2.45-.92a94.48,94.48,0,0,0-15.35-3.76c-1.17-.1-2.42-.36-3.6-.46s-2.58-.31-3.92-.34c-1-.16-2.13-.1-3.31-.2l-.39,0c-1.35,0-2.62.09-3.8,0-1.61,0-3.22.05-4.82.11A203.82,203.82,0,0,1,128.32,32.06q5.69-2.27,11.43-4.17l1.26-.5c2.89-1.34,5.83-2.52,9-3.75Z"/></g></g></svg>