<svg xmlns="http://www.w3.org/2000/svg" viewBox="0 0 196 62.43"><defs><style>.cls-1{fill:#aa163f;}.cls-2{fill:#202b52;}.cls-3{fill:#fff;}.cls-4{fill:#68a0b7;}</style></defs><g id="Capa_2" data-name="Capa 2"><g id="fondos"><path class="cls-1" d="M71.57,34.55a6.26,6.26,0,0,1-2.38-2.3,6.76,6.76,0,0,1,0-6.6,6.08,6.08,0,0,1,2.39-2.3A7,7,0,0,1,75,22.51a7.17,7.17,0,0,1,2.7.49,5.48,5.48,0,0,1,2.08,1.47L78.61,25.6a4.68,4.68,0,0,0-3.54-1.49,5.11,5.11,0,0,0-2.53.63,4.53,4.53,0,0,0-1.77,1.73,5.11,5.11,0,0,0,0,5,4.46,4.46,0,0,0,1.77,1.73,5.11,5.11,0,0,0,2.53.63,4.67,4.67,0,0,0,3.54-1.51l1.17,1.14a5.66,5.66,0,0,1-2.09,1.47,7.5,7.5,0,0,1-6.12-.33Z"/><path class="cls-1" d="M83.42,34.72A4.58,4.58,0,0,1,81.64,33a5.3,5.3,0,0,1,0-5,4.49,4.49,0,0,1,1.78-1.73,5.53,5.53,0,0,1,5.09,0A4.44,4.44,0,0,1,90.27,28a5.22,5.22,0,0,1,0,5,4.53,4.53,0,0,1-1.76,1.74,5.46,5.46,0,0,1-5.09,0Zm4.19-1.31a3,3,0,0,0,1.15-1.18,4,4,0,0,0,0-3.51,3,3,0,0,0-1.15-1.18A3.3,3.3,0,0,0,86,27.13a3.36,3.36,0,0,0-1.65.41,3,3,0,0,0-1.15,1.18,3.88,3.88,0,0,0,0,3.51,3,3,0,0,0,1.15,1.18,3.17,3.17,0,0,0,1.65.43A3.11,3.11,0,0,0,87.61,33.41Z"/><path class="cls-1" d="M101.46,26.67a4.16,4.16,0,0,1,1.07,3.09v5.48H100.8V30a2.92,2.92,0,0,0-.66-2.08,2.51,2.51,0,0,0-1.91-.7A3,3,0,0,0,96,28a3.21,3.21,0,0,0-.81,2.35v4.91H93.48V25.71h1.66v1.44A3.36,3.36,0,0,1,96.55,26a4.82,4.82,0,0,1,2-.4A4,4,0,0,1,101.46,26.67Z"/><path class="cls-1" d="M111.27,34.68a2.64,2.64,0,0,1-.94.5,4,4,0,0,1-1.15.17,3,3,0,0,1-2.23-.78,3,3,0,0,1-.79-2.21V27.13h-1.62V25.71h1.62V23.62h1.73v2.09h2.73v1.42h-2.73v5.16a1.72,1.72,0,0,0,.38,1.19,1.47,1.47,0,0,0,1.11.41,2.07,2.07,0,0,0,1.35-.45Z"/><path class="cls-1" d="M120,26.59a3.76,3.76,0,0,1,1.06,2.9v5.75h-1.64V34a2.83,2.83,0,0,1-1.23,1,4.81,4.81,0,0,1-1.9.35,3.93,3.93,0,0,1-2.56-.78,2.66,2.66,0,0,1-.05-4.05,4.56,4.56,0,0,1,2.92-.76h2.73v-.35a2.19,2.19,0,0,0-.65-1.7,2.69,2.69,0,0,0-1.9-.6,5,5,0,0,0-1.66.28,4.32,4.32,0,0,0-1.36.75l-.72-1.3a5.34,5.34,0,0,1,1.76-.91,7.69,7.69,0,0,1,2.17-.31A4.29,4.29,0,0,1,120,26.59Zm-1.71,7a2.56,2.56,0,0,0,1-1.25V31H116.7c-1.46,0-2.2.49-2.2,1.47a1.33,1.33,0,0,0,.56,1.13,2.53,2.53,0,0,0,1.55.42A3.25,3.25,0,0,0,118.32,33.58ZM118.23,22h2.19l-3,2.34h-1.62Z"/><path class="cls-1" d="M126.08,34.72A4.54,4.54,0,0,1,124.29,33a5.15,5.15,0,0,1,0-5,4.45,4.45,0,0,1,1.79-1.73,5.36,5.36,0,0,1,2.59-.62,4.92,4.92,0,0,1,2.31.52,3.71,3.71,0,0,1,1.58,1.51l-1.32.85a2.94,2.94,0,0,0-1.11-1,3.15,3.15,0,0,0-1.47-.34,3.49,3.49,0,0,0-1.69.41,3.08,3.08,0,0,0-1.17,1.18,3.59,3.59,0,0,0-.42,1.75,3.63,3.63,0,0,0,.42,1.78A3,3,0,0,0,127,33.42a3.39,3.39,0,0,0,1.69.42,3.28,3.28,0,0,0,1.47-.34,2.94,2.94,0,0,0,1.11-1l1.32.83A3.8,3.8,0,0,1,131,34.82a4.92,4.92,0,0,1-2.31.53A5.26,5.26,0,0,1,126.08,34.72Z"/><path class="cls-1" d="M140.45,34.68a2.55,2.55,0,0,1-.94.5,4,4,0,0,1-1.15.17,3.06,3.06,0,0,1-2.23-.78,3,3,0,0,1-.79-2.21V27.13h-1.62V25.71h1.62V23.62h1.73v2.09h2.73v1.42h-2.73v5.16a1.67,1.67,0,0,0,.39,1.19,1.43,1.43,0,0,0,1.1.41,2.07,2.07,0,0,0,1.35-.45Z"/><path class="cls-1" d="M149.21,26.59a3.73,3.73,0,0,1,1.06,2.9v5.75h-1.64V34a2.83,2.83,0,0,1-1.23,1,4.77,4.77,0,0,1-1.9.35,3.93,3.93,0,0,1-2.56-.78,2.65,2.65,0,0,1,0-4.05,4.51,4.51,0,0,1,2.91-.76h2.73v-.35a2.15,2.15,0,0,0-.65-1.7,2.69,2.69,0,0,0-1.9-.6,5,5,0,0,0-1.66.28,4.32,4.32,0,0,0-1.36.75l-.72-1.3a5.34,5.34,0,0,1,1.76-.91,7.71,7.71,0,0,1,2.18-.31A4.28,4.28,0,0,1,149.21,26.59Zm-1.71,7a2.51,2.51,0,0,0,1-1.25V31h-2.66q-2.19,0-2.19,1.47a1.32,1.32,0,0,0,.55,1.13,2.53,2.53,0,0,0,1.55.42A3.25,3.25,0,0,0,147.5,33.58Z"/><path class="cls-1" d="M161.62,26.67a4.12,4.12,0,0,1,1.07,3.09v5.48H161V30a2.92,2.92,0,0,0-.67-2.08,2.49,2.49,0,0,0-1.91-.7,3,3,0,0,0-2.21.81,3.21,3.21,0,0,0-.81,2.35v4.91h-1.72V25.71h1.65v1.44A3.36,3.36,0,0,1,156.71,26a4.87,4.87,0,0,1,2-.4A3.92,3.92,0,0,1,161.62,26.67Z"/><path class="cls-1" d="M167.65,34.72A4.62,4.62,0,0,1,165.88,33a5.3,5.3,0,0,1,0-5,4.53,4.53,0,0,1,1.77-1.73,5.3,5.3,0,0,1,2.56-.62,5.19,5.19,0,0,1,2.54.62A4.44,4.44,0,0,1,174.51,28a5.22,5.22,0,0,1,0,5,4.53,4.53,0,0,1-1.76,1.74,5.09,5.09,0,0,1-2.54.63A5.19,5.19,0,0,1,167.65,34.72Zm4.2-1.31A2.88,2.88,0,0,0,173,32.23a3.88,3.88,0,0,0,0-3.51,2.88,2.88,0,0,0-1.14-1.18,3.3,3.3,0,0,0-1.64-.41,3.36,3.36,0,0,0-1.65.41,3,3,0,0,0-1.15,1.18,3.88,3.88,0,0,0,0,3.51,3,3,0,0,0,1.15,1.18,3.17,3.17,0,0,0,1.65.43A3.11,3.11,0,0,0,171.85,33.41Z"/><path class="cls-1" d="M178.21,35a4.84,4.84,0,0,1-1.69-.8l.72-1.36a5.17,5.17,0,0,0,1.53.72,6.25,6.25,0,0,0,1.81.27c1.51,0,2.27-.44,2.27-1.3a.81.81,0,0,0-.31-.68,1.93,1.93,0,0,0-.76-.37c-.31-.08-.74-.17-1.3-.26a12,12,0,0,1-1.88-.42,2.79,2.79,0,0,1-1.25-.79,2.18,2.18,0,0,1-.53-1.56,2.45,2.45,0,0,1,1.08-2.08,4.86,4.86,0,0,1,2.9-.78,8.23,8.23,0,0,1,1.9.23,5.35,5.35,0,0,1,1.57.63l-.74,1.37a5,5,0,0,0-2.75-.76,3.16,3.16,0,0,0-1.67.36,1.08,1.08,0,0,0-.58,1,.89.89,0,0,0,.33.73,2,2,0,0,0,.8.4c.31.08.76.18,1.34.29a14.78,14.78,0,0,1,1.86.42,2.8,2.8,0,0,1,1.21.76,2.12,2.12,0,0,1,.5,1.51,2.36,2.36,0,0,1-1.1,2.06,5.22,5.22,0,0,1-3,.77A8,8,0,0,1,178.21,35Z"/><path class="cls-2" d="M25.61,33.57a12.71,12.71,0,0,1,4.58-2.49c0,3.21,0,6.44,0,9.65A8.93,8.93,0,0,1,27.65,40a9.07,9.07,0,0,1-3.84-3.19,7.41,7.41,0,0,1-.43-.74A11.93,11.93,0,0,1,25.61,33.57Z"/><path class="cls-2" d="M30.43,30.43a13.65,13.65,0,0,0-2.7,1.06,13.08,13.08,0,0,0-2.41,1.63,8.59,8.59,0,0,0-.72.66,10.79,10.79,0,0,0-1.47,1.8,9.22,9.22,0,0,1-.86-3.5,8.82,8.82,0,0,1,1.86-5.87,10.11,10.11,0,0,1,4.48-3.27h0a16.92,16.92,0,0,1,1.7-.43h0a18.6,18.6,0,0,1,2.78-.39h.25c.36,0,.71,0,1.08,0l7,0,0,.6a3.61,3.61,0,0,1-.1.38,12.91,12.91,0,0,1-.45,1.37c-.06.11-.1.25-.16.39l0,0c-.06.11-.1.23-.15.33s-.14.27-.2.39-.14.24-.2.35a10.24,10.24,0,0,1-1,1.43l-.2.22c-.16.17-.33.35-.51.51l-.41.35a5.24,5.24,0,0,1-.7.51l-.22.13a5.7,5.7,0,0,1-1.39.59l-.19.06a3.06,3.06,0,0,1-.57.12l-.37.06a2.45,2.45,0,0,1-.38,0h-.78a1.62,1.62,0,0,0-.31,0h0a13.39,13.39,0,0,0-2.35.38l-.16,0Z"/><path class="cls-2" d="M47.53,45.29a22.26,22.26,0,0,1-20.17,6.83,22.38,22.38,0,0,1-13.82-8.83,21.26,21.26,0,0,1-3.6-16.1,22.3,22.3,0,0,1,5.83-11.65,21.07,21.07,0,0,1,8.92-5.36,26.29,26.29,0,0,1,5.78-.9,36.27,36.27,0,0,1,8.16.33c-.16.78-.94,4.46-4,6.42-2.25,1.45-4.77,1.37-7.26,2a13.84,13.84,0,0,0-2.13.86,14.55,14.55,0,0,0-6.63,7.77,13.39,13.39,0,0,0-.39,8.16,13.77,13.77,0,0,0,23.93,5C44,41.61,45.75,43.45,47.53,45.29Z"/><path class="cls-3" d="M47.53,45.29a22.26,22.26,0,0,1-20.17,6.83,22.38,22.38,0,0,1-13.82-8.83,21.26,21.26,0,0,1-3.6-16.1,22.3,22.3,0,0,1,5.83-11.65,21.07,21.07,0,0,1,8.92-5.36,26.29,26.29,0,0,1,5.78-.9,36.27,36.27,0,0,1,8.16.33c-.16.78-.94,4.46-4,6.42-2.25,1.45-4.77,1.37-7.26,2a13.84,13.84,0,0,0-2.13.86,14.55,14.55,0,0,0-6.63,7.77,13.39,13.39,0,0,0-.39,8.16,13.77,13.77,0,0,0,23.93,5C44,41.61,45.75,43.45,47.53,45.29Z"/><path class="cls-3" d="M30.21,40.73A8.93,8.93,0,0,1,27.65,40a9.07,9.07,0,0,1-3.84-3.19,7.41,7.41,0,0,1-.43-.74,11.93,11.93,0,0,1,2.23-2.52,12.71,12.71,0,0,1,4.58-2.49C30.19,34.29,30.19,37.52,30.21,40.73Z"/><path class="cls-4" d="M30.7,30.41h0c-.12,0-.21.06-.31.08Z"/><path class="cls-1" d="M41.5,22.08l0,.6a3.61,3.61,0,0,1-.1.38,12.91,12.91,0,0,1-.45,1.37c-.06.11-.1.25-.16.39l0,0c-.06.11-.1.23-.15.33s-.14.27-.2.39-.14.24-.2.35a10.24,10.24,0,0,1-1,1.43l-.2.22c-.16.17-.33.35-.51.51l-.41.35a5.24,5.24,0,0,1-.7.51l-.22.13a5.7,5.7,0,0,1-1.39.59l-.19.06a3.06,3.06,0,0,1-.57.12l-.37.06a2.45,2.45,0,0,1-.38,0h-.78a1.62,1.62,0,0,0-.31,0h0a13.39,13.39,0,0,0-2.35.38l-.16,0-.15,0a13.65,13.65,0,0,0-2.7,1.06,13.08,13.08,0,0,0-2.41,1.63,8.59,8.59,0,0,0-.72.66,10.79,10.79,0,0,0-1.47,1.8,9.22,9.22,0,0,1-.86-3.5,8.82,8.82,0,0,1,1.86-5.87,10.11,10.11,0,0,1,4.48-3.27h0a16.92,16.92,0,0,1,1.7-.43h0a18.6,18.6,0,0,1,2.78-.39h.25c.36,0,.71,0,1.08,0Z"/><path class="cls-2" d="M183.26,16.46H62.43a12.66,12.66,0,0,0-3.45.48c.2.39.4.8.58,1.2a11.35,11.35,0,0,1,2.87-.37H183.26A11.45,11.45,0,0,1,194.69,29.2v1a11.45,11.45,0,0,1-11.43,11.43H62.43a12.5,12.5,0,0,1-1.74-.13c-.14.42-.3.83-.46,1.24a12.25,12.25,0,0,0,2.2.2H183.26A12.75,12.75,0,0,0,196,30.21v-1A12.75,12.75,0,0,0,183.26,16.46Z"/><path class="cls-2" d="M59.56,18.14c-.18-.4-.38-.81-.58-1.2a31.21,31.21,0,1,0,1.25,25.81c.16-.41.32-.82.46-1.24a31.27,31.27,0,0,0-1.13-23.37ZM27.73,31.49a13.08,13.08,0,0,0-2.41,1.63,8.59,8.59,0,0,0-.72.66,10.79,10.79,0,0,0-1.47,1.8,9.22,9.22,0,0,1-.86-3.5,8.82,8.82,0,0,1,1.86-5.87,10.11,10.11,0,0,1,4.48-3.27h0a16.92,16.92,0,0,1,1.7-.43h0a18.6,18.6,0,0,1,2.78-.39h.25c.36,0,.71,0,1.08,0l7,0,0,.6a3.61,3.61,0,0,1-.1.38,12.91,12.91,0,0,1-.45,1.37c-.06.11-.1.25-.16.39l0,0c-.06.11-.1.23-.15.33s-.14.27-.2.39-.14.24-.2.35a10.24,10.24,0,0,1-1,1.43l-.2.22c-.16.17-.33.35-.51.51l-.41.35a5.24,5.24,0,0,1-.7.51l-.22.13a5.7,5.7,0,0,1-1.39.59l-.19.06a3.06,3.06,0,0,1-.57.12l-.37.06a2.45,2.45,0,0,1-.38,0h-.78a1.62,1.62,0,0,0-.31,0h0a13.39,13.39,0,0,0-2.35.38l-.16,0-.15,0A13.65,13.65,0,0,0,27.73,31.49Zm2.48,9.24A8.93,8.93,0,0,1,27.65,40a9.07,9.07,0,0,1-3.84-3.19,7.41,7.41,0,0,1-.43-.74,11.93,11.93,0,0,1,2.23-2.52,12.71,12.71,0,0,1,4.58-2.49C30.19,34.29,30.19,37.52,30.21,40.73ZM27.36,52.12a22.38,22.38,0,0,1-13.82-8.83,21.26,21.26,0,0,1-3.6-16.1,22.3,22.3,0,0,1,5.83-11.65,21.07,21.07,0,0,1,8.92-5.36,26.29,26.29,0,0,1,5.78-.9,36.27,36.27,0,0,1,8.16.33c-.16.78-.94,4.46-4,6.42-2.25,1.45-4.77,1.37-7.26,2a13.84,13.84,0,0,0-2.13.86,14.55,14.55,0,0,0-6.63,7.77,13.39,13.39,0,0,0-.39,8.16,13.77,13.77,0,0,0,23.93,5c1.8,1.8,3.58,3.64,5.36,5.48A22.26,22.26,0,0,1,27.36,52.12Z"/></g></g></svg>