<svg xmlns="http://www.w3.org/2000/svg" viewBox="0 0 16.65 30.75"><defs><style>.cls-1{fill:#fff;}</style></defs><g id="Capa_2" data-name="Capa 2"><g id="botón_contacto_redes" data-name="botón contacto + redes"><path class="cls-1" d="M5,23.91c0-1.82,0-3.64,0-5.46,0-.9-.35-1.29-1.23-1.21a1.7,1.7,0,0,1-.39,0c-1-.18-2.56.58-3-.44-.65-1.42-.31-3.15-.13-4.74,0-.46.51-.55.91-.56a22.84,22.84,0,0,1,2.34,0C4.61,11.57,5.12,11.18,5,10,5,9.07,5,8.11,5,7.16,5.13,2.74,7.84.05,12.24,0A25.19,25.19,0,0,1,15.6.24c.78.09,1.07.44,1,1.18a4.68,4.68,0,0,0,0,.65c0,1,.23,2.07-.19,2.81s-1.75.27-2.66.4a2.74,2.74,0,0,0-2.53,2.24c-.78,3.27-.25,4,3,4,.26,0,.52,0,.78,0,1-.09,1.43.32,1.22,1.37s-.38,2.22-.51,3.34c-.09.75-.45,1.09-1.19,1H14.3c-3.2.08-3.2.08-3.2,3.25,0,2.91,0,5.81,0,8.72,0,1.09-.31,1.6-1.47,1.53s-2.26,0-3.38,0C5.38,30.75,5,30.39,5,29.5c0-1.86,0-3.73,0-5.59Z"/></g></g></svg>