<svg xmlns="http://www.w3.org/2000/svg" viewBox="0 0 110.93 149.49"><defs><style>.cls-1{fill:#202b53;}.cls-2{isolation:isolate;font-size:32.13px;fill:#a9163f;font-family:Montserrat-SemiBold, Montserrat SemiBold;font-weight:600;letter-spacing:0.01em;}</style></defs><g id="Capa_2" data-name="Capa 2"><g id="navegación"><path class="cls-1" d="M73.9,75.27A84.75,84.75,0,0,0,63.16,44.62c-1.83-3.11-4-6-6-9a.66.66,0,0,0-.26-.21,1.57,1.57,0,0,0,.7-.74,8.82,8.82,0,0,0-.21-8.19,3.16,3.16,0,0,1-.4-1.78,5.14,5.14,0,0,0-2.22-5.35c-.81-.53-.81-1-.44-1.8a20.65,20.65,0,0,0,2.34-8.77c0-3.39-2-5.38-5.28-5.24a8.16,8.16,0,0,0-2.81.5c-2.19.94-4.33,2-6.46,3.12-.67.36-1,.37-1.56-.18A36.35,36.35,0,0,0,37.31,3.8a15.7,15.7,0,0,0-7-3.66C27.6-.4,25.46.65,24.82,3.08a9.51,9.51,0,0,0-.39,3.86c.46,2.91,1.24,5.77,1.82,8.66A2,2,0,0,1,26,17.07c-2.67,3-5.43,5.88-8.08,8.89-.81.93-1.54,1.88-3,1.29a2.28,2.28,0,0,0-1.16.06c-3.68.67-7.38,1.3-11,2.08A5.85,5.85,0,0,0,.35,30.81C-.3,31.35,0,32,.73,32.19a3,3,0,0,0,1.4,0C6,31.52,9.77,30.84,13.57,30.1c1-.2,1.47.06,1.74,1.1,1.62,6.19,3.23,12.38,5,18.55.34,1.26-.05,1.61-1.18,1.8-4,.69-7.89,1.42-11.83,2.16-1,.17-2,.38-1.8,1.72s1.25,1.13,2.18,1L10.41,56a.65.65,0,0,1,.74.54.62.62,0,0,1,0,.27A92.39,92.39,0,0,0,7.58,68.46c-.1.48-.54,2.49-.9,4h0A58.68,58.68,0,0,0,5.64,87a21.46,21.46,0,0,0,2.15,8.69c2.17,4,5.77,6.51,9.84,8.25a55.9,55.9,0,0,0,31,3.89c6.59-1,13-2.67,18.58-6.52a15.32,15.32,0,0,0,6.47-9.16C75.09,86.58,74.74,80.93,73.9,75.27ZM31.64,3.46c4.16,2.08,7.68,4.93,9.5,9.44.31.76.86,1.27,1.72,1s1.07-1,.86-1.91c-.57-2.33-.62-2.42,1.61-3.54a28.56,28.56,0,0,1,5.59-2.11C53,5.83,54.09,6.84,54,9a19.31,19.31,0,0,1-2.52,8.17,1.35,1.35,0,0,1-.91.57c-3.66.71-7.33,1.36-11,2.1-2.09.42-4.15,1-6.24,1.43a1.63,1.63,0,0,1-1.4-.42c-2.63-4.48-4.52-9.22-4.76-13.74,0-4.34,1.23-5.26,4.47-3.63ZM18.11,30.93a1.84,1.84,0,0,1,.26-1.42c1.85-2.25,3.77-4.44,5.7-6.63,1.09-1.24,2.24-2.43,3.36-3.63l.35.24c.07.05.18.08.22.14.62,1.1,1.23,2.2,1.87,3.3,1,1.67,1.2,1.75,3.05,1.3C37.54,23.14,42.14,22,46.79,21a12.65,12.65,0,0,1,4.75-.15c2.54.45,3.23,2,2.42,4.44-.15.48-.29,1.36.08,1.57,3.44,2,2.27,7.39.8,8.47a.64.64,0,0,0-.64.63.68.68,0,0,0,.13.39h0c1.36,1.5,1,3,.15,4.59a9,9,0,0,1-4.4,4.13,25.92,25.92,0,0,1-4.18,1.47c-7.27,1.7-14.65,2.14-22,2.75a1.36,1.36,0,0,1-1.05-.8Q20.43,39.76,18.11,31ZM71.74,87.18c-.36,6.32-3.23,10.85-9,13.62a49.1,49.1,0,0,1-12.4,3.94,54,54,0,0,1-31.52-3.29,19.36,19.36,0,0,1-7-4.75c-2.74-3-3.29-6.76-3.47-10.58-.12-2.59.18-5.2.21-7.81,0-.3.52-3.9.59-4.23.52-2.59,1.23-5.66,1.47-6.55.88-3,1.83-6.08,2.84-9.09,1.14-3.33,1.18-3.32,4.7-4a7,7,0,0,0,1.28-.21c1-.32,2.24-.43,2.86-1.1a4.24,4.24,0,0,1,3.24-1.23c1.17-.08,2.18-.14,3.23-.27,7-.81,14.17-1,20.94-3.52a13.19,13.19,0,0,0,7-5.71l.29-.49a.64.64,0,0,1,.88-.22,1.07,1.07,0,0,1,.19.18,9.83,9.83,0,0,1,.56.81A81.74,81.74,0,0,1,69.58,68a62.46,62.46,0,0,1,2.16,19.19Z"/><path class="cls-1" d="M110.52,141.32c0,.39-.54.9-1,1.19s-.76.1-1.15.1H87.9c-2.2,0-2.76-.58-2.76-2.8V112.22c0-2.16.64-2.81,2.79-2.82h20.53a5.27,5.27,0,0,1,1.9.48c.63.86,1.13,2-.72,2.27h-20c-1.26,0-1.75.26-1.74,1.62q.09,12.21,0,24.44c0,1.31.35,1.73,1.68,1.71,6.19-.07,12.38,0,18.59,0,.48,0,1.06-.12,1.41.1A2.1,2.1,0,0,1,110.52,141.32Z"/><path class="cls-1" d="M84.43,138.5c.27.81-.38,1.35-1.24,1.47-2,.28-4.09.43-6.08.85-9.57,2-18.82,5.13-28.07,8.23a6.44,6.44,0,0,1-6.16-.81c-5.51-3.76-11-7.47-16.56-11.22a24.67,24.67,0,0,1-6.47-6.73c-2.42-3.61-5.12-7-7.72-10.51a7,7,0,0,1-1.85-4.1,4.17,4.17,0,0,1,2.43-4.13c1.49-.73,3-.33,4.54,1q6.18,5.55,12.38,11c.29.26.61.47,1.12.87.81-2,2.43-2.52,4.25-2.83,5.47-1,10.94-2,16.34-3.18a37.92,37.92,0,0,0,6.19-2.73,31.92,31.92,0,0,1,8.34-3.23c1.1-.25,2-.41,2.55-.5a32.39,32.39,0,0,1,14.22.8l.63.18c.88.24,1.43.81,1.19,1.72s-1.06,1.15-2,.89a31.06,31.06,0,0,0-10.59-1.24l-2.5.2a78,78,0,0,0-10.94,3.76A30.79,30.79,0,0,1,48,122c-4.45.92-8.89,1.69-13.41,2.5-.8.15-1.39.65-1.22,1.39a3.52,3.52,0,0,0,1.23,1.62c.28.22.81.13,1.28.13a100.61,100.61,0,0,0,22.63-2.15,5.37,5.37,0,0,1,.8-.15c.81-.1,1.62.23,1.62,1.08a1.93,1.93,0,0,1-1,1.5,47,47,0,0,1-5.75,1.21,110.08,110.08,0,0,1-18.58,1.21,5.81,5.81,0,0,1-4-1.57q-7.92-7.09-16-14.1c-.42-.35-1.41-.67-1.61-.46a2.39,2.39,0,0,0-.63,1.8,3.89,3.89,0,0,0,.89,1.69c2.82,3.88,5.78,7.65,8.45,11.62,2.23,3.35,5.4,5.52,8.6,7.71,4.24,2.91,8.59,5.65,12.79,8.62a5.13,5.13,0,0,0,5,.62c8.14-2.55,16.31-5,24.52-7.36a80.87,80.87,0,0,1,8.89-1.54c.25,0,.59-.13.8,0C83.54,137.66,84.28,138,84.43,138.5Z"/><path class="cls-1" d="M96.05,135.07a3.33,3.33,0,1,1,0-.33A1.82,1.82,0,0,1,96.05,135.07Z"/><text class="cls-2" transform="translate(30.43 88.89)">$</text></g></g></svg>