<svg xmlns="http://www.w3.org/2000/svg" viewBox="0 0 25.58 26.15"><defs><style>.cls-1{fill:#fff;}</style></defs><g id="Capa_2" data-name="Capa 2"><g id="botón_contacto_redes" data-name="botón contacto + redes"><path class="cls-1" d="M12.76,0h4.88c4.66,0,7.73,2.9,7.86,7.6.11,3.71.1,7.42,0,11.13A7.08,7.08,0,0,1,19,25.85a69.27,69.27,0,0,1-13,0A6.25,6.25,0,0,1,1,22.07a8.7,8.7,0,0,1-1-4.13c.06-3.4,0-6.81,0-10.21A7.44,7.44,0,0,1,7.66,0c1.7,0,3.4,0,5.1,0ZM23.23,13.05h0c0-1.78,0-3.56,0-5.34a5.22,5.22,0,0,0-5.6-5.57c-3.25,0-6.5,0-9.74,0A5.43,5.43,0,0,0,2.3,6.83a16.17,16.17,0,0,0,0,3.81c.1,2.74-.41,5.48,0,8.22a5.4,5.4,0,0,0,5.44,5c3.4.08,6.81.08,10.21,0a5.35,5.35,0,0,0,5.25-5.39C23.24,16.68,23.23,14.87,23.23,13.05Z"/><path class="cls-1" d="M5.8,12.91a6.93,6.93,0,0,1,6.92-7c4.17,0,7.08,2.9,7,7a7,7,0,1,1-14,.1Zm7-4.28a4.18,4.18,0,0,0-4.42,4.19,4.44,4.44,0,0,0,4.4,4.41,4.35,4.35,0,0,0,4.37-4.42C17.17,10.26,15.49,8.64,12.81,8.63Z"/><path class="cls-1" d="M19.88,7.5a1.58,1.58,0,0,1-1.75-1.58,1.61,1.61,0,0,1,1.64-1.71,1.54,1.54,0,0,1,1.66,1.65A1.53,1.53,0,0,1,19.88,7.5Z"/></g></g></svg>