<svg xmlns="http://www.w3.org/2000/svg" viewBox="0 0 133.28 156.7"><defs><style>.cls-1{fill:none;stroke:#202b53;stroke-miterlimit:10;stroke-width:2.42px;}</style></defs><g id="Capa_2" data-name="Capa 2"><g id="navegación"><path class="cls-1" d="M76.75,1.66a16.89,16.89,0,0,1,6,4.05,3.05,3.05,0,0,1,.81,2.83Q81.15,22.28,78.73,36c-.45,2.54.34,4.39,2.26,5.26a4.2,4.2,0,0,0,5.6-2A4.28,4.28,0,0,0,87,38.05c1.44-7.94,2.79-15.9,4.19-23.84.1-.58.25-1.14.41-1.93a55.4,55.4,0,0,1,30.25,49.17c.66,0,1.22.07,1.81.07,4.93.07,8.57,3.54,8.44,8.23s-3.72,8-8.55,8c-17.08-.07-34.17,0-51.25,0H9.18A8.08,8.08,0,0,1,7.3,61.8,8.44,8.44,0,0,1,10,61.6c1.21.08,1.49-.4,1.51-1.53a52.51,52.51,0,0,1,4.26-19.92A54.93,54.93,0,0,1,40.4,13c.38-.21.81-.36,1.29-.58,1,5.31,1.86,10.51,2.77,15.63.59,3.31,1.15,6.63,1.78,9.94.51,2.61,2.52,4.1,4.85,3.69a4.27,4.27,0,0,0,3.42-5.2c-1.26-7.37-2.58-14.72-3.88-22.08-.37-2.1-.81-4.19-1.06-6.3a2.83,2.83,0,0,1,.49-1.87,12.43,12.43,0,0,1,6.41-4.34s3.9-.93,18.93-.58Z"/><path class="cls-1" d="M121.88,87.81c-.43,2.19-.76,4.28-1.25,6.32-4.1,17.42-11.63,33.14-23.94,46.27-6.1,6.54-13.17,11.72-22,14-9.1,2.37-17.55.7-25.66-4-10.71-6.21-18.18-15.4-24.37-25.78A101.52,101.52,0,0,1,11.67,90c-.12-.67-.18-1.36-.3-2.22Z"/></g></g></svg>