<svg xmlns="http://www.w3.org/2000/svg" viewBox="0 0 27.9 27.82"><defs><style>.cls-1{fill:#fff;}</style></defs><g id="Capa_2" data-name="Capa 2"><g id="botón_contacto_redes" data-name="botón contacto + redes"><path class="cls-1" d="M15.59,11A7.4,7.4,0,0,1,22.73,8.9a5.37,5.37,0,0,1,4.64,4.38,22.76,22.76,0,0,1,.49,4c.07,2.9,0,5.81,0,8.71,0,1.22-.36,1.82-1.67,1.71a14.22,14.22,0,0,0-2.61,0c-1.37.13-1.89-.39-1.86-1.8.06-3,0-6,0-9A2.68,2.68,0,0,0,18.56,14a2.65,2.65,0,0,0-2.47,1.92,7.13,7.13,0,0,0-.36,2.43c0,2.66,0,5.33,0,8,0,1.13-.4,1.6-1.56,1.45a11.25,11.25,0,0,0-2.46-.07c-1.43.14-2-.35-2-1.86.08-5,.07-10.07,0-15.11,0-1.31.42-1.73,1.68-1.56a9.9,9.9,0,0,0,2-.07C14.74,9,15.74,9.22,15.59,11Z"/><path class="cls-1" d="M6.43,18.39c0,2.56,0,5.12,0,7.68,0,1.28-.46,1.75-1.71,1.66a21,21,0,0,0-2.75,0C.83,27.8.48,27.26.49,26.17q0-7.83,0-15.65c0-1,.28-1.44,1.33-1.33a20,20,0,0,0,2.32,0c2.29,0,2.29,0,2.29,2.36Z"/><path class="cls-1" d="M3.57,0A3.57,3.57,0,0,1,6.94,3.48,3.61,3.61,0,0,1,3.55,7,3.69,3.69,0,0,1,0,3.46,3.63,3.63,0,0,1,3.57,0Z"/></g></g></svg>