<svg xmlns="http://www.w3.org/2000/svg" viewBox="0 0 224.21 193.99"><defs><style>.cls-1{fill:none;stroke:#202b53;stroke-miterlimit:10;stroke-width:3px;}</style></defs><g id="Capa_2" data-name="Capa 2"><g id="navegación"><path class="cls-1" d="M158.21,34.87c-7.45,0-7.7,0-8.16-7.33-.38-6.17-1.93-12.26-.11-18.63,1.43-4.94-1.12-7.33-6.25-7.33-20.9,0-41.79.14-62.68-.08-7-.09-7.47,4-6.7,8.69A37.8,37.8,0,0,1,75,18c-.19,4.59-.88,9.17-1.16,13.76-.15,2.34-1,3.2-3.41,3.18-9-.13-18,0-27-.11-2.39,0-3.23.63-3.2,3.13.14,9.3.06,18.6.06,27.89V189.08c0,1,.11,2.06.18,3.15H183.74V34.87Zm-16.27-2.61c.05,2.08-.74,2.69-2.75,2.69q-27-.08-54.08,0c-2.1,0-3-.56-2.94-2.8.11-5.4,0-10.78,0-16.16,0-1.92.71-2.54,2.61-2.53,9.11.08,18.22,0,27.33,0v0c8.83,0,17.65.12,26.46-.06,2.79-.06,3.51.9,3.42,3.5C141.79,22,141.84,27.13,141.94,32.26Z"/><path class="cls-1" d="M222.7,113.78v63.54c0,10-5.1,15.11-14.95,15.12-4.82,0-9.62-.07-14.42,0-2,0-2.75-.49-2.75-2.63q.07-65,0-130V37.5c0-1.72.24-2.77,2.36-2.72,5.18.1,10.38,0,15.58,0,8.74.08,14.13,5.48,14.15,14.17Q222.71,81.42,222.7,113.78Z"/><path class="cls-1" d="M33.38,189.63c0,2.18-.67,2.92-2.87,2.86-4.91-.15-9.81,0-14.72-.05-9,0-14.28-5.31-14.29-14.23V49.43C1.5,40.24,6.66,35,15.8,34.88c5-.05,10,0,15-.05,1.93,0,2.59.68,2.55,2.58q-.23,12.31-.27,24.66c0,4.21.24,8.42.24,12.62v98.5C33.38,178.68,33.29,184.15,33.38,189.63Z"/></g></g></svg>