<svg xmlns="http://www.w3.org/2000/svg" viewBox="0 0 161.92 164.44"><defs><style>.cls-1,.cls-2{fill:none;stroke-linecap:round;stroke-linejoin:round;}.cls-1{stroke:#202b53;}.cls-1,.cls-2,.cls-3{stroke-width:4.04px;}.cls-2{stroke:#a9163f;}.cls-3{fill:#202b53;stroke:#fff;stroke-miterlimit:10;}</style></defs><g id="Capa_2" data-name="Capa 2"><g id="navegación"><path class="cls-1" d="M119.05,22.92a28,28,0,0,1,4.12,13.86h0a28.28,28.28,0,0,0,13,22.86h0A27.91,27.91,0,0,1,147,72.22"/><path class="cls-1" d="M34.8,21.43a28,28,0,0,1,16.37-.17h0a28.29,28.29,0,0,0,25.77-5.34h0A27.94,27.94,0,0,1,91.68,9.6"/><path class="cls-1" d="M9.26,100.92a28,28,0,0,1,4.9-16h0A28.25,28.25,0,0,0,17,58.79h0a28.18,28.18,0,0,1-1.77-14.07"/><path class="cls-1" d="M75.79,149a28,28,0,0,1-12.5-9.19h0A28.29,28.29,0,0,0,39.3,129h0a28.12,28.12,0,0,1-13.5-2.46"/><path class="cls-1" d="M142.17,102.32a28.06,28.06,0,0,1-11.51,7.73h0A28.26,28.26,0,0,0,113,129.52h0A28.1,28.1,0,0,1,105.1,143"/><circle class="cls-2" cx="145.1" cy="87.4" r="14.8" transform="translate(-14.72 31.28) rotate(-11.72)"/><circle class="cls-2" cx="90.86" cy="147.62" r="14.8" transform="translate(-28.08 21.53) rotate(-11.72)"/><circle class="cls-2" cx="16.82" cy="114" r="14.8" transform="translate(-22.8 5.79) rotate(-11.72)"/><circle class="cls-2" cx="105.11" cy="16.82" r="14.8" transform="translate(-1.23 21.69) rotate(-11.72)"/><circle class="cls-2" cx="25.83" cy="33.59" r="14.8" transform="translate(-6.28 5.94) rotate(-11.72)"/><path class="cls-3" d="M84,106.29a6.25,6.25,0,0,1-3.89-1.36L39.22,72.3A6.25,6.25,0,0,1,47,62.54L83.23,91.45,146.07,20a6.24,6.24,0,1,1,9.37,8.25l-66.76,76A6.26,6.26,0,0,1,84,106.29Z"/></g></g></svg>