<svg xmlns="http://www.w3.org/2000/svg" viewBox="0 0 129.8 153.55"><defs><style>.cls-1{fill:none;stroke:#202b53;stroke-miterlimit:10;stroke-width:2.42px;}.cls-2{fill:#202b53;}.cls-3,.cls-4{fill:#a9163f;}.cls-4{font-size:21.36px;font-family:Montserrat-SemiBold, Montserrat SemiBold;font-weight:600;}.cls-5{letter-spacing:-0.08em;}</style></defs><g id="Capa_2" data-name="Capa 2"><g id="navegación"><polygon class="cls-1" points="27.98 3.23 2.93 28.29 27.98 28.29 27.98 3.23"/><path class="cls-2" d="M120.91,0V99.55a22.29,22.29,0,0,0-2.42-1.27V2.42h-84V34.75H2.93V151.12H118.49V140.93a22.29,22.29,0,0,0,2.42-1.27v13.89H.5V32.33H32V0Z"/><line class="cls-1" x1="39.29" y1="20.2" x2="103.14" y2="20.2"/><line class="cls-1" x1="39.29" y1="31.11" x2="103.14" y2="31.11"/><line class="cls-1" x1="17.47" y1="42.02" x2="103.14" y2="42.02"/><line class="cls-1" x1="16.66" y1="101.42" x2="82.12" y2="101.42"/><line class="cls-1" x1="16.66" y1="133.75" x2="82.12" y2="133.75"/><line class="cls-1" x1="65.96" y1="111.93" x2="82.12" y2="111.93"/><line class="cls-1" x1="17.47" y1="111.93" x2="59.5" y2="111.93"/><line class="cls-1" x1="49.8" y1="122.43" x2="82.12" y2="122.43"/><line class="cls-1" x1="17.47" y1="122.43" x2="43.33" y2="122.43"/><rect class="cls-1" x="17.47" y="52.53" width="85.66" height="37.98"/><path class="cls-3" d="M120.91,102.45a19.34,19.34,0,0,0-2.42-1.48,21,21,0,1,0,0,37.27,20.6,20.6,0,0,0,2.42-1.48,21,21,0,0,0,0-34.31ZM90.21,119.6a18.58,18.58,0,0,1,28.28-15.85,16.94,16.94,0,0,1,2.42,1.78c.2.16.38.32.56.49L95.21,132.28A18.48,18.48,0,0,1,90.21,119.6Zm31.72,13.14a13.05,13.05,0,0,1-1,.94,16.94,16.94,0,0,1-2.42,1.78A18.58,18.58,0,0,1,97,134l26.16-26.15a18.58,18.58,0,0,1-1.2,24.95Z"/><text class="cls-4" transform="translate(39.29 80.79)">S<tspan class="cls-5" x="10.53" y="0">A</tspan><tspan x="21.96" y="0">T</tspan></text></g></g></svg>