<svg xmlns="http://www.w3.org/2000/svg" viewBox="0 0 26.33 22.3"><defs><style>.cls-1{fill:#fff;}</style></defs><g id="Capa_2" data-name="Capa 2"><g id="botón_contacto_redes" data-name="botón contacto + redes"><path class="cls-1" d="M24.62,3c.63.34,1.38-.63,1.67.12s-.6,1-1,1.35A3.61,3.61,0,0,0,24,7.14,16,16,0,0,1,12.16,21.8C8.32,22.93,2.79,22.06,0,19.89c.36-.55.93-.31,1.39-.33a10.57,10.57,0,0,0,4.67-1.29c.27-.15.69-.3.56-.69-.06-.19-.41-.35-.66-.42a5.33,5.33,0,0,1-2.85-2.35c-.53-.8-.86-1.5,1-1.48A6.53,6.53,0,0,1,.73,9.64C.24,8.17.48,7.91,2.11,8.23c-.06-.62-.59-.93-.82-1.39A5.69,5.69,0,0,1,.78,2.51c.37-1.26.75-1.4,1.66-.43a14.78,14.78,0,0,0,7,4.24,10.65,10.65,0,0,0,1.08.27c1.68.27,1.87.12,2.12-1.57A5.69,5.69,0,0,1,21.3.93a3,3,0,0,0,3.12.23c.36-.15.79-.61,1.13-.24s-.09.86-.32,1.25A9.65,9.65,0,0,1,24.62,3Z"/></g></g></svg>